<?xml version='1.0' encoding='utf-8'?>
<!DOCTYPE svg PUBLIC '-//W3C//DTD SVG 1.1//EN' 'http://www.w3.org/Graphics/SVG/1.1/DTD/svg11.dtd'>
<svg version="1.1" xmlns="http://www.w3.org/2000/svg" viewBox="0 0 512 512" xmlns:xlink="http://www.w3.org/1999/xlink" enable-background="new 0 0 512 512">
  <g>
    <g>
      <path d="M480.6,56.4H395v-25c0-11.3-9.1-20.4-20.4-20.4s-20.4,9.1-20.4,20.4v25H157.8v-25c0-11.3-9.1-20.4-20.4-20.4    S117,20.1,117,31.4v25H31.4C20.1,56.4,11,65.5,11,76.8v403.8c0,11.3,9.1,20.4,20.4,20.4h449.2c11.3,0,20.4-9.1,20.4-20.4V76.8    C501,65.5,491.9,56.4,480.6,56.4z M117,97.2V113c0,11.3,9.1,20.4,20.4,20.4s20.4-9.1,20.4-20.4V97.2h196.3V113    c0,11.3,9.1,20.4,20.4,20.4S395,124.3,395,113V97.2h65.2v83H51.8v-83H117z M51.8,460.2V221h408.3v239.1H51.8z" fill="currentcolor"/>
      <path d="m198.1,382.4c3-3.2 9.7-9.3 20.3-18.2 12.6-10.8 21.6-19.3 27-25.5 5.4-6.2 9.3-12.1 11.6-17.7 2.3-5.6 3.5-11.3 3.5-17.1 0-11.4-4-21-12-28.7-8-7.7-18.8-11.6-32.5-11.6-13.6,0-24.4,3.6-32.5,10.7-8.1,7.1-12.7,17.5-13.9,31.2l18,1.9c0.1-9.1 2.6-16.2 7.7-21.3 5.1-5.1 11.8-7.7 20.3-7.7 8,0 14.5,2.4 19.4,7.3 5,4.8 7.5,10.8 7.5,17.8 0,6.7-2.7,13.9-8.2,21.4-5.5,7.5-15.9,17.8-31.5,30.7-10,8.3-17.7,15.6-22.9,21.9-5.3,6.3-9.1,12.7-11.5,19.3-1.5,4-2.2,8.1-2,12.4h94.4v-17.2h-70.1c2-3.2 4.4-6.4 7.4-9.6z"/>
      <path d="m318.8,283c-7.3,6.7-15.9,12.3-25.7,17v17.2c5.5-2 11.6-5.1 18.5-9.2 6.9-4.1 12.4-8.2 16.6-12.3v113.4h17.5v-145.5h-11.3c-3.1,6.3-8.3,12.7-15.6,19.4z"/>
    </g>
  </g>
</svg>
